<?xml version="1.0" encoding="utf-8"?>
<svg xmlns="http://www.w3.org/2000/svg" viewBox="0 0 500 500">
  <g transform="matrix(0.188786, 0, 0, -0.188786, -231.253769, 722.97583)" fill="#FF3388" stroke="none" style="">
    <path d="M1323 3733 c-12 -2 -34 -18 -48 -34 l-25 -31 0 -1110 0 -1110 34 -34 34 -34 398 0 398 0 586 585 c383 383 592 585 606 585 11 0 30 -7 42 -16 l22 -15 0 -520 c0 -570 0 -573 59 -603 23 -13 64 -16 185 -16 l156 0 32 29 33 29 3 1115 2 1115 -25 30 c-29 35 -63 46 -99 32 -14 -5 -276 -261 -582 -570 -449 -451 -562 -560 -583 -560 -20 0 -136 111 -591 565 -311 311 -571 565 -577 565 -6 0 -17 2 -25 4 -7 2 -23 1 -35 -1z"/>
  </g>
</svg>